<svg width="12" height="12" viewBox="0 0 12 12" fill="none" xmlns="http://www.w3.org/2000/svg">
<path d="M10.6428 5.07142H6.92847V1.35713C6.92847 0.844272 6.51274 0.428537 5.99989 0.428537C5.48703 0.428537 5.0713 0.844272 5.0713 1.35713V5.07142H1.35705C0.844201 5.07142 0.428467 5.48716 0.428467 6.00001C0.428467 6.51286 0.844201 6.92854 1.35705 6.92854H5.07135V10.6428C5.07135 11.1557 5.48709 11.5714 5.99994 11.5714C6.51279 11.5714 6.92847 11.1556 6.92847 10.6428V6.92854H10.6428C11.1556 6.92854 11.5714 6.51281 11.5714 5.99996C11.5714 5.4871 11.1556 5.07142 10.6428 5.07142Z" fill="black"/>
</svg>
