<svg width="125" height="125" viewBox="0 0 125 125" fill="none" xmlns="http://www.w3.org/2000/svg">
<g filter="url(#filter0_ddd_3_7)">
<circle cx="62.5" cy="46.5" r="38.5" fill="white"/>
</g>
<path d="M54.6969 37.5288H61.2286V40H51.6207V25.0703H54.6969V37.5288ZM74.61 32.8735C74.61 34.3433 74.3502 35.6318 73.8307 36.7393C73.3111 37.8467 72.566 38.7012 71.5953 39.3027C70.6314 39.9043 69.524 40.2051 68.273 40.2051C67.0357 40.2051 65.9317 39.9077 64.961 39.313C63.9903 38.7183 63.2384 37.8706 62.7052 36.77C62.172 35.6626 61.902 34.3911 61.8951 32.9556V32.2173C61.8951 30.7476 62.1583 29.4556 62.6847 28.3413C63.2179 27.2202 63.9664 26.3623 64.9303 25.7676C65.901 25.166 67.0084 24.8652 68.2525 24.8652C69.4967 24.8652 70.6007 25.166 71.5646 25.7676C72.5353 26.3623 73.2838 27.2202 73.8102 28.3413C74.3434 29.4556 74.61 30.7441 74.61 32.207V32.8735ZM71.4928 32.1968C71.4928 30.6313 71.2125 29.4419 70.652 28.6284C70.0914 27.8149 69.2916 27.4082 68.2525 27.4082C67.2203 27.4082 66.4239 27.8115 65.8634 28.6182C65.3028 29.418 65.0191 30.5938 65.0123 32.1455V32.8735C65.0123 34.3979 65.2926 35.5806 65.8531 36.4214C66.4137 37.2622 67.2203 37.6826 68.273 37.6826C69.3053 37.6826 70.0982 37.2793 70.652 36.4727C71.2057 35.6592 71.4859 34.4766 71.4928 32.9248V32.1968ZM61.6388 63.1133C61.0851 63.7764 60.3023 64.2925 59.2906 64.6616C58.2789 65.0239 57.1578 65.2051 55.9273 65.2051C54.6354 65.2051 53.5006 64.9248 52.523 64.3643C51.5523 63.7969 50.8004 62.9766 50.2672 61.9033C49.7408 60.8301 49.4708 59.5688 49.4571 58.1196V57.1045C49.4571 55.6143 49.7066 54.3257 50.2057 53.2388C50.7115 52.145 51.4361 51.311 52.3795 50.7368C53.3297 50.1558 54.4405 49.8652 55.712 49.8652C57.4825 49.8652 58.8668 50.2891 59.8648 51.1367C60.8629 51.9775 61.4542 53.2046 61.6388 54.8179H58.6446C58.5079 53.9634 58.2037 53.3379 57.732 52.9414C57.2672 52.5449 56.6246 52.3467 55.8043 52.3467C54.7584 52.3467 53.962 52.7397 53.4151 53.5259C52.8683 54.312 52.5914 55.481 52.5846 57.0327V57.9863C52.5846 59.5518 52.8819 60.7344 53.4767 61.5342C54.0714 62.334 54.943 62.7339 56.0914 62.7339C57.2467 62.7339 58.0704 62.4878 58.5626 61.9956V59.4219H55.7633V57.1558H61.6388V63.1133ZM76.4044 57.8735C76.4044 59.3433 76.1446 60.6318 75.6251 61.7393C75.1056 62.8467 74.3604 63.7012 73.3897 64.3027C72.4259 64.9043 71.3185 65.2051 70.0675 65.2051C68.8302 65.2051 67.7262 64.9077 66.7555 64.313C65.7848 63.7183 65.0328 62.8706 64.4996 61.77C63.9664 60.6626 63.6964 59.3911 63.6896 57.9556V57.2173C63.6896 55.7476 63.9527 54.4556 64.4791 53.3413C65.0123 52.2202 65.7608 51.3623 66.7247 50.7676C67.6954 50.166 68.8028 49.8652 70.047 49.8652C71.2911 49.8652 72.3951 50.166 73.359 50.7676C74.3297 51.3623 75.0782 52.2202 75.6046 53.3413C76.1378 54.4556 76.4044 55.7441 76.4044 57.207V57.8735ZM73.2872 57.1968C73.2872 55.6313 73.0069 54.4419 72.4464 53.6284C71.8858 52.8149 71.086 52.4082 70.047 52.4082C69.0147 52.4082 68.2184 52.8115 67.6578 53.6182C67.0973 54.418 66.8136 55.5938 66.8067 57.1455V57.8735C66.8067 59.3979 67.087 60.5806 67.6476 61.4214C68.2081 62.2622 69.0147 62.6826 70.0675 62.6826C71.0997 62.6826 71.8927 62.2793 72.4464 61.4727C73.0001 60.6592 73.2804 59.4766 73.2872 57.9248V57.1968Z" fill="black"/>
<defs>
<filter id="filter0_ddd_3_7" x="0" y="0" width="125" height="125" filterUnits="userSpaceOnUse" color-interpolation-filters="sRGB">
<feFlood flood-opacity="0" result="BackgroundImageFix"/>
<feColorMatrix in="SourceAlpha" type="matrix" values="0 0 0 0 0 0 0 0 0 0 0 0 0 0 0 0 0 0 127 0" result="hardAlpha"/>
<feOffset/>
<feGaussianBlur stdDeviation="0.5"/>
<feColorMatrix type="matrix" values="0 0 0 0 0 0 0 0 0 0 0 0 0 0 0 0 0 0 0.04 0"/>
<feBlend mode="normal" in2="BackgroundImageFix" result="effect1_dropShadow_3_7"/>
<feColorMatrix in="SourceAlpha" type="matrix" values="0 0 0 0 0 0 0 0 0 0 0 0 0 0 0 0 0 0 127 0" result="hardAlpha"/>
<feOffset dy="2"/>
<feGaussianBlur stdDeviation="3"/>
<feColorMatrix type="matrix" values="0 0 0 0 0 0 0 0 0 0 0 0 0 0 0 0 0 0 0.04 0"/>
<feBlend mode="normal" in2="effect1_dropShadow_3_7" result="effect2_dropShadow_3_7"/>
<feColorMatrix in="SourceAlpha" type="matrix" values="0 0 0 0 0 0 0 0 0 0 0 0 0 0 0 0 0 0 127 0" result="hardAlpha"/>
<feOffset dy="16"/>
<feGaussianBlur stdDeviation="12"/>
<feColorMatrix type="matrix" values="0 0 0 0 0 0 0 0 0 0 0 0 0 0 0 0 0 0 0.06 0"/>
<feBlend mode="normal" in2="effect2_dropShadow_3_7" result="effect3_dropShadow_3_7"/>
<feBlend mode="normal" in="SourceGraphic" in2="effect3_dropShadow_3_7" result="shape"/>
</filter>
</defs>
</svg>
